<svg t="1763362445940" class="icon" viewBox="0 0 1024 1024" version="1.1" xmlns="http://www.w3.org/2000/svg" p-id="29210" width="16" height="16"><path d="M783.944966 423.554738H377.94679V273.155199c0-49.81714 60.60582-105.245173 135.301326-105.245173 74.723151 0 135.395524 55.429056 135.395524 105.245173V318.297279h0.53242c3.596909 25.508055 25.539796 45.107268 52.020542 45.107268 26.571872 0 48.44923-19.599213 52.113715-45.107268h0.598973v-45.140033c0-116.26525-107.790551-210.523109-240.66015-210.523109-132.839906 0-240.598717 94.259907-240.598717 210.523109v150.39954h-30.102228c-49.786424 0-90.176652 40.396372-90.176653 90.215559v360.929816c0 49.819188 40.390228 90.200202 90.176653 90.200202h541.397795c49.852976 0 90.209417-40.382037 90.209417-90.200202V513.769274c0-49.818164-40.35644-90.214536-90.210441-90.214536z" fill="#1296db" p-id="29211"></path></svg>