<svg t="1762927864968" class="icon" viewBox="0 0 1024 1024" version="1.1" xmlns="http://www.w3.org/2000/svg" p-id="5678" width="32" height="32"><path d="M392.704 95.744H176.128c-47.104 0-85.504 38.4-85.504 85.504v216.576c0 47.104 38.4 85.504 85.504 85.504h216.576c47.104 0 85.504-38.4 85.504-85.504V180.736c0-47.104-38.4-84.992-85.504-84.992z m0 443.904H176.128c-47.104 0-85.504 38.4-85.504 85.504v216.576c0 47.104 38.4 85.504 85.504 85.504h216.576c47.104 0 85.504-38.4 85.504-85.504v-216.576c0-47.104-38.4-85.504-85.504-85.504z m444.928 0h-216.576c-47.104 0-85.504 38.4-85.504 85.504v216.576c0 47.104 38.4 85.504 85.504 85.504h216.576c47.104 0 85.504-38.4 85.504-85.504v-216.576c0-47.104-38.4-85.504-85.504-85.504z m-156.16-76.8c27.136 27.136 71.68 27.136 98.816 0l125.44-125.44c27.136-27.136 27.136-71.68 0-98.816l-125.44-125.44c-27.136-27.136-71.68-27.136-98.816 0l-125.44 125.44c-27.136 27.136-27.136 71.68 0 98.816l125.44 125.44z m0 0" fill="#6dbfea" p-id="5679"></path></svg>